<?xml version="1.0" standalone="no"?>
<!DOCTYPE svg PUBLIC "-//W3C//DTD SVG 20010904//EN"
 "http://www.w3.org/TR/2001/REC-SVG-20010904/DTD/svg10.dtd">
<svg version="1.0" xmlns="http://www.w3.org/2000/svg"
 width="173.000000pt" height="174.000000pt" viewBox="0 0 173.000000 174.000000"
 preserveAspectRatio="xMidYMid meet">

<g transform="translate(0.000000,174.000000) scale(0.100000,-0.100000)"
fill="#05a8d9" stroke="none">
<path d="M685 1714 c-254 -56 -476 -227 -590 -454 -199 -397 -70 -873 303
-1114 125 -81 298 -136 427 -136 l55 0 0 335 0 335 -95 0 -96 0 3 108 3 107
93 3 92 3 0 107 c0 123 8 159 49 224 53 83 180 123 335 104 l56 -7 0 -94 0
-93 -86 -3 c-79 -4 -87 -6 -110 -32 -21 -25 -24 -37 -24 -118 l0 -89 105 0
c122 0 112 13 93 -131 l-12 -89 -93 0 -93 0 0 -320 0 -320 66 24 c245 89 451
313 526 573 20 66 23 101 23 233 0 180 -12 235 -80 377 -111 230 -306 388
-565 460 -81 22 -298 26 -385 7z"/>
</g>
</svg>
