<?xml version="1.0" standalone="no"?>
<!DOCTYPE svg PUBLIC "-//W3C//DTD SVG 20010904//EN"
 "http://www.w3.org/TR/2001/REC-SVG-20010904/DTD/svg10.dtd">
<svg version="1.0" xmlns="http://www.w3.org/2000/svg"
 width="174.000000pt" height="174.000000pt" viewBox="0 0 174.000000 174.000000"
 preserveAspectRatio="xMidYMid meet">

<g transform="translate(0.000000,174.000000) scale(0.100000,-0.100000)"
fill="#05a8d9" stroke="none">
<path d="M740 1703 c-205 -34 -413 -158 -533 -315 -115 -152 -166 -293 -174
-485 -5 -103 -2 -137 16 -217 70 -301 297 -542 593 -627 105 -30 279 -37 389
-15 265 54 491 233 604 480 46 101 66 185 72 309 6 114 -4 187 -39 297 -91
285 -336 504 -630 564 -71 15 -235 20 -298 9z m496 -355 c59 -31 98 -73 128
-138 20 -42 21 -62 21 -340 0 -278 -1 -298 -21 -340 -30 -65 -69 -107 -128
-138 l-51 -27 -294 -3 c-254 -3 -301 -1 -347 14 -71 22 -135 79 -165 146 -24
52 -24 58 -24 348 0 290 0 296 24 348 29 64 93 123 158 145 41 14 94 16 348
14 l300 -2 51 -27z"/>
<path d="M587 1276 c-55 -15 -90 -44 -120 -101 -21 -38 -22 -53 -22 -305 0
-254 1 -267 22 -306 31 -57 73 -90 133 -103 65 -14 480 -14 540 0 59 13 108
52 131 103 17 37 19 69 19 306 0 236 -2 269 -19 305 -25 55 -70 91 -131 104
-73 16 -492 13 -553 -3z m593 -96 c24 -24 25 -47 3 -72 -20 -22 -51 -23 -75
-1 -25 22 -23 59 4 77 30 21 44 20 68 -4z m-200 -61 c101 -45 160 -138 160
-249 -1 -156 -115 -270 -270 -270 -155 0 -269 114 -270 270 0 155 114 270 270
270 44 0 80 -7 110 -21z"/>
<path d="M817 1037 c-68 -21 -127 -99 -127 -167 0 -108 117 -198 223 -169 54
14 112 72 126 127 35 128 -95 249 -222 209z"/>
</g>
</svg>
