<?xml version="1.0" encoding="UTF-8"?>
<svg id="Layer_2" data-name="Layer 2" xmlns="http://www.w3.org/2000/svg" viewBox="0 0 196.34 190.59">
  <defs>
    <style>
      .cls-1 {
        fill: #94D5EF;
        fill-rule: evenodd;
      }
    </style>
  </defs>
  <g id="Layer_1-2" data-name="Layer 1">
    <g>
      <path class="cls-1" d="M78.01,145.33c8.51,5.82,16.99,9.93,25.43,12.33,10.36,2.95,21.11,3.52,32.07,1.58,10.93-1.83,20.86-5.99,29.85-12.4,6.6-4.71,12.07-10.33,16.41-16.75,5.26-7.73,12.34-22.17,9.77-30.66,16.34,15.99-12.55,55.33-31.52,68.88-15.08,10.77-29.73,17.63-43.94,20.57-14.22,2.95-28.69,2.08-43.25-2.5-20.3-6.37-37.72-19.74-52.17-39.97C.93,118.83-4.69,90.11,3.89,60.27c4.67-16.26,12.8-30.16,24.38-41.64-4.8,9.34-6.88,21.3-6.01,34.54-.15,8.38,1.29,16.74,4.31,25.09,2.62,10.15,7.26,20.06,13.91,29.06,10.31,16.72,23.65,29.96,37.53,38Z"/>
      <path class="cls-1" d="M178.03,31.8c-23.72,5.14-35.62,55.62-18.21,54.95,15.51-.6,32.85-40.35,24.99-52.22-3.02-4.55-3.22-3.49-6.78-2.72Z"/>
      <path class="cls-1" d="M71.63,14.81c8.57,.03,16.5-5.23,27.84,.58,10.16,5.2,13.35,14.48,19.42,21.38,8.41-30.77-28.57-52.69-47.25-21.96Z"/>
    </g>
  </g>
</svg>