<?xml version="1.0" standalone="no"?>
<!DOCTYPE svg PUBLIC "-//W3C//DTD SVG 20010904//EN"
 "http://www.w3.org/TR/2001/REC-SVG-20010904/DTD/svg10.dtd">
<svg version="1.0" xmlns="http://www.w3.org/2000/svg"
 width="174.000000pt" height="174.000000pt" viewBox="0 0 174.000000 174.000000"
 preserveAspectRatio="xMidYMid meet">

<g transform="translate(0.000000,174.000000) scale(0.100000,-0.100000)"
fill="#05a8d9" stroke="none">
<path d="M700 1714 c-405 -86 -689 -433 -690 -842 0 -163 51 -338 136 -468 51
-79 184 -210 264 -262 330 -214 780 -164 1066 118 178 175 262 393 251 650 -9
238 -92 418 -270 587 -123 116 -274 193 -441 222 -81 15 -237 12 -316 -5z
m356 -381 c14 -63 26 -91 56 -127 34 -42 116 -86 161 -86 l27 0 0 -81 0 -82
-57 6 c-32 3 -83 19 -118 36 -35 17 -65 31 -68 31 -3 0 -7 -100 -9 -222 -3
-192 -5 -228 -21 -256 -30 -55 -88 -112 -141 -140 -44 -23 -63 -27 -141 -27
-81 0 -95 3 -143 29 -97 54 -152 139 -160 247 -6 91 16 154 79 223 57 62 120
93 209 103 l60 6 0 -86 0 -86 -29 5 c-18 4 -46 -2 -75 -15 -38 -17 -50 -29
-67 -67 -59 -131 74 -254 200 -186 70 38 71 44 71 444 l0 358 80 0 c79 0 80 0
86 -27z"/>
</g>
</svg>
