<?xml version="1.0" standalone="no"?>
<!DOCTYPE svg PUBLIC "-//W3C//DTD SVG 20010904//EN"
 "http://www.w3.org/TR/2001/REC-SVG-20010904/DTD/svg10.dtd">
<svg version="1.0" xmlns="http://www.w3.org/2000/svg"
 width="173.000000pt" height="174.000000pt" viewBox="0 0 173.000000 174.000000"
 preserveAspectRatio="xMidYMid meet">

<g transform="translate(0.000000,174.000000) scale(0.100000,-0.100000)"
fill="#05a8d9" stroke="none">
<path d="M715 1719 c-265 -49 -490 -219 -615 -463 -71 -138 -94 -249 -87 -419
6 -154 22 -218 82 -344 111 -230 307 -389 565 -460 90 -24 272 -29 371 -9 323
66 568 291 666 613 23 77 26 106 27 228 0 106 -4 157 -18 210 -88 328 -342
572 -669 639 -83 17 -241 19 -322 5z m538 -488 c55 -9 94 -35 119 -78 44 -75
44 -492 0 -567 -27 -46 -73 -72 -139 -79 -132 -14 -430 -18 -597 -8 -197 11
-236 23 -269 78 -49 85 -49 501 1 587 29 51 78 68 221 77 141 8 590 2 664 -10z"/>
<path d="M760 870 l0 -162 33 19 c17 10 78 45 135 78 56 32 102 62 102 65 0 3
-46 33 -102 65 -57 33 -118 68 -135 78 l-33 19 0 -162z"/>
</g>
</svg>
